# xmcd
#
# Track frame offsets:
#	182
#	16872
#	33247
#	54152
#	68470
#	82700
#	108775
#	126850
#	145630
#	161025
#	178777
#	192867
#	209627
#
# Disc length: 3124 seconds
#
# Revision: 1
# Processed by: cddbd v1.4b42PL1 Copyright (c) Steve Scherf et al.
# Submitted via: audiograbber 1.80
#
DISCID=9e0c320d
DTITLE=Lucky Peterson - The Alligator Sessions
DYEAR=1900
DGENRE=
TTITLE0=Jammin' In The Jungle
TTITLE1=Locked Out of Love
TTITLE2=She Spread Her Wings
TTITLE3=Dead Cat On The Line
TTITLE4=Heart Attack
TTITLE5=I Found A Love
TTITLE6=Lucky Strikes
TTITLE7=Let The Chips Fall Where They May
TTITLE8=Repo Man
TTITLE9=Over My Head
TTITLE10=Pounding Of My Heart
TTITLE11=Six O'Clock Blues
TTITLE12=Funky Ray
EXTD=
EXTT0=
EXTT1=
EXTT2=
EXTT3=
EXTT4=
EXTT5=
EXTT6=
EXTT7=
EXTT8=
EXTT9=
EXTT10=
EXTT11=
EXTT12=
PLAYORDER=
